<svg width="50" height="50" viewBox="0 0 50 50" fill="none" xmlns="http://www.w3.org/2000/svg">
<path d="M4.66114 4.76759C3.8425 4.4947 2.95762 4.93713 2.68473 5.7558C2.41185 6.57447 2.85429 7.45934 3.67293 7.73222L4.22483 7.9162C5.63402 8.3859 6.56568 8.69897 7.25204 9.01826C7.90196 9.32059 8.18296 9.56392 8.363 9.81372C8.54304 10.0635 8.68502 10.407 8.76631 11.1192C8.85218 11.8713 8.85454 12.8542 8.85454 14.3396V19.9059C8.8545 22.755 8.85448 25.0514 9.09731 26.8577C9.34941 28.7329 9.88879 30.3119 11.1428 31.5658C12.3968 32.8198 13.9757 33.3592 15.8509 33.6112C17.6571 33.8542 19.9536 33.8542 22.8027 33.8542H37.5004C38.3633 33.8542 39.0629 33.1546 39.0629 32.2917C39.0629 31.4285 38.3633 30.7292 37.5004 30.7292H22.917C19.9266 30.7292 17.8409 30.7258 16.2673 30.5142C14.7386 30.3087 13.9291 29.9327 13.3525 29.3562C12.8625 28.8662 12.5174 28.2079 12.2987 27.0833H33.3795C35.3785 27.0833 36.3779 27.0833 37.1606 26.5671C37.9433 26.051 38.3368 25.1325 39.1243 23.2952L40.017 21.2119C41.7035 17.2769 42.5468 15.3093 41.6206 13.9046C40.6943 12.4999 38.5537 12.4999 34.2725 12.4999H11.9692C11.957 11.8589 11.93 11.2805 11.8711 10.7647C11.7558 9.7547 11.5046 8.8279 10.8981 7.98649C10.2917 7.14509 9.49189 6.61365 8.57016 6.18484C7.703 5.78145 6.60025 5.4139 5.29529 4.97897L4.66114 4.76759Z" fill="#CF02F5"/>
<path d="M15.625 37.5C17.3509 37.5 18.75 38.8992 18.75 40.625C18.75 42.3508 17.3509 43.75 15.625 43.75C13.8991 43.75 12.5 42.3508 12.5 40.625C12.5 38.8992 13.8991 37.5 15.625 37.5Z" fill="#CF02F5"/>
<path d="M34.375 37.5002C36.1008 37.5002 37.5 38.8992 37.5 40.6252C37.5 42.351 36.1008 43.7502 34.375 43.7502C32.6492 43.7502 31.25 42.351 31.25 40.6252C31.25 38.8992 32.6492 37.5002 34.375 37.5002Z" fill="#CF02F5"/>
</svg>
